# xmcd
#
# Track frame offsets:
#	150
#	26483
#	40166
#	65609
#	92548
#	112136
#	135503
#	149266
#	176903
#
# Disc length: 2479 seconds
#
# Revision: 0
# Processed by: cddbd v1.5.2PL0 Copyright (c) Steve Scherf et al.
# Submitted via: EZCDAudioConverter 1.3.4.1
#
DISCID=7d09ad09
DTITLE=Kratherion - Mantra Lucifer Flagelantes
DYEAR=2013
DGENRE=Black Metal
TTITLE0=Death Kult Church Omega
TTITLE1=Liturgia Bubonica Infame
TTITLE2=Necropolis Natal
TTITLE3=Agonia Dantesca Y Macabra
TTITLE4=Coito Sigilum Diaboli
TTITLE5=Combustion Espontanea Del Espiritu Santo
TTITLE6=Mantra Lucifer Flagelantes
TTITLE7=Vuelo Nocturno
TTITLE8=Fornica Vulgata
EXTD=
EXTT0=
EXTT1=
EXTT2=
EXTT3=
EXTT4=
EXTT5=
EXTT6=
EXTT7=
EXTT8=
PLAYORDER=
